<?xml version="1.0" encoding="iso-8859-1"?>
<!-- Generator: Adobe Illustrator 19.0.0, SVG Export Plug-In . SVG Version: 6.00 Build 0)  -->
<svg version="1.1" id="Capa_1" xmlns="http://www.w3.org/2000/svg" xmlns:xlink="http://www.w3.org/1999/xlink" x="0px" y="0px"
	 viewBox="0 0 507.843 507.843" style="enable-background:new 0 0 507.843 507.843;" xml:space="preserve">
<g>
	<g>
		<g>
			<path d="M506.452,118.413c-8.203-49.59-51.116-85.94-101.38-85.875c-30.31,0.07-59.792,9.899-84.08,28.032L91.696,232.538v81.68
				L0,412.474l23.392,21.84l100.304-107.376v-78.4L340.176,86.17c18.747-13.993,41.502-21.578,64.896-21.632
				c39.005-0.006,70.629,31.609,70.635,70.613c0.005,34.53-24.958,64.001-59.019,69.675c-19.61,3.251-36.803,14.951-47.024,32
				l-65.04,108.384c-8.709,14.43-24.314,23.272-41.168,23.328h-50.832L106.096,485.77l23.696,21.536l96.976-106.768h36.688
				c28.08-0.08,54.083-14.807,68.592-38.848l65.056-108.352c5.395-9.018,14.481-15.208,24.848-16.928
				C477.87,227.16,515.702,174.331,506.452,118.413z"/>
			<rect x="283.696" y="0.538" width="32" height="32"/>
			<rect x="219.696" y="48.538" width="32" height="32"/>
			<rect x="155.696" y="96.538" width="32" height="32"/>
			<rect x="91.696" y="144.538" width="32" height="32"/>
			<rect x="347.696" y="112.538" width="32" height="32"/>
			<rect x="283.696" y="160.538" width="32" height="32"/>
			<rect x="219.696" y="208.538" width="32" height="32"/>
			<rect x="155.696" y="256.538" width="32" height="32"/>
		</g>
	</g>
</g>
<g>
</g>
<g>
</g>
<g>
</g>
<g>
</g>
<g>
</g>
<g>
</g>
<g>
</g>
<g>
</g>
<g>
</g>
<g>
</g>
<g>
</g>
<g>
</g>
<g>
</g>
<g>
</g>
<g>
</g>
</svg>
